name processed_emg_signals						
nRows=155						
nColumns=7						
 						
endheader						
time	LGLTMED	LRF	LADDLONG	LST	LTA	LGM
1.96	0.035137511	0.030666505	0.044235793	0.321295405	0.457180678	0.043292655
1.961	0.034960155	0.030322482	0.044174198	0.324544614	0.451227228	0.042732884
1.962	0.034784503	0.029987205	0.044119743	0.327739925	0.445209026	0.042175013
1.963	0.034610845	0.029660889	0.044072497	0.330878969	0.439129931	0.041620175
1.964	0.034439481	0.029343758	0.044032527	0.333959406	0.432993876	0.041069538
1.965	0.034270713	0.029036038	0.043999898	0.33697893	0.426804861	0.040524306
1.966	0.034104853	0.028737964	0.043974674	0.339935275	0.420566941	0.039985716
1.967	0.033942215	0.028449773	0.043956915	0.342826214	0.414284224	0.039455038
1.968	0.033783121	0.028171713	0.043946682	0.345649563	0.407960864	0.038933575
1.969	0.033627895	0.027904034	0.043944032	0.348403186	0.401601051	0.038422659
1.97	0.033476868	0.027646996	0.043949022	0.351084997	0.395209004	0.037923652
1.971	0.033330376	0.027400863	0.043961706	0.353692963	0.388788967	0.037437945
1.972	0.033188758	0.027165907	0.043982138	0.356225107	0.382345203	0.036966955
1.973	0.033052356	0.026942407	0.044010369	0.35867951	0.375881981	0.036512123
1.974	0.032921518	0.02673065	0.04404645	0.361054316	0.369403579	0.036074918
1.975	0.032796594	0.026530927	0.044090431	0.363347734	0.362914269	0.035656827
1.976	0.032677937	0.02634354	0.044142359	0.365558039	0.356418316	0.035259361
1.977	0.032565902	0.026168794	0.04420228	0.367683578	0.34991997	0.034884051
1.978	0.032460849	0.026007004	0.044270242	0.36972277	0.343423461	0.034532442
1.979	0.032363138	0.025858491	0.044346287	0.371674107	0.336932992	0.034206098
1.98	0.032273131	0.025723583	0.04443046	0.373536161	0.330452735	0.033906599
1.981	0.032191193	0.025602614	0.044522803	0.375307584	0.323986825	0.033635533
1.982	0.032117687	0.025495927	0.044623357	0.376987107	0.317539354	0.033394504
1.983	0.03205298	0.025403869	0.044732162	0.378573548	0.311114366	0.03318512
1.984	0.031997439	0.025326795	0.044849258	0.380065808	0.304715853	0.033008999
1.985	0.03195143	0.025265066	0.044974683	0.381462875	0.29834775	0.032867765
1.986	0.031915318	0.025219047	0.045108473	0.382763829	0.29201393	0.032763042
1.987	0.03188947	0.025189111	0.045250666	0.383967837	0.285718202	0.032696456
1.988	0.03187425	0.025175636	0.045401296	0.385074159	0.279464302	0.032669635
1.989	0.031870021	0.025179005	0.045560397	0.386082147	0.273255895	0.0326842
1.99	0.031877145	0.025199604	0.045728003	0.386991247	0.267096566	0.032741769
1.991	0.031895981	0.025237827	0.045904145	0.387801	0.260989823	0.032843951
1.992	0.031926887	0.025294068	0.046088854	0.388511042	0.254939085	0.032992348
1.993	0.031970216	0.025368727	0.046282159	0.389121104	0.248947689	0.033188547
1.994	0.032026319	0.025462206	0.04648409	0.389631014	0.24301888	0.033434123
1.995	0.032095543	0.025574912	0.046694672	0.390040697	0.23715581	0.033730633
1.996	0.032178231	0.025707252	0.046913931	0.390350173	0.231361538	0.034079619
1.997	0.032274721	0.025859634	0.047141892	0.39055956	0.225639027	0.034482597
1.998	0.032385346	0.02603247	0.047378577	0.390669072	0.21999114	0.034941064
1.999	0.032510435	0.026226171	0.047624007	0.390679018	0.214420641	0.035456488
2	0.03265031	0.026441148	0.0478782	0.390589802	0.208930193	0.036030311
2.001	0.032805286	0.026677812	0.048141173	0.390401925	0.203522355	0.036663945
2.002	0.032975673	0.026936573	0.048412942	0.390115979	0.198199584	0.037358768
2.003	0.033161774	0.027217839	0.048693518	0.389732649	0.192964231	0.038116122
2.004	0.033363882	0.027522015	0.048982912	0.389252712	0.187818543	0.038937316
2.005	0.033582284	0.027849506	0.049281132	0.388677035	0.18276466	0.039823613
2.006	0.033817259	0.02820071	0.049588181	0.388006573	0.177804616	0.04077624
2.007	0.034069076	0.028576022	0.049904061	0.387242366	0.172940339	0.041796374
2.008	0.034337994	0.028975833	0.050228771	0.386385541	0.168173652	0.04288515
2.009	0.034624264	0.029400528	0.050562304	0.385437304	0.163506269	0.044043651
2.01	0.034928126	0.029850484	0.050904652	0.384398945	0.158939799	0.045272909
2.011	0.035249809	0.030326073	0.0512558	0.38327183	0.154475745	0.046573905
2.012	0.035589531	0.030827659	0.051615732	0.382057399	0.150115506	0.04794756
2.013	0.035947499	0.031355597	0.051984424	0.380757166	0.145860372	0.04939474
2.014	0.036323906	0.031910233	0.05236185	0.379372713	0.141711534	0.050916251
2.015	0.036718935	0.032491902	0.052747976	0.37790569	0.137670074	0.052512835
2.016	0.037132754	0.033100932	0.053142765	0.37635781	0.133736974	0.054185172
2.017	0.03756552	0.033737635	0.053546172	0.374730846	0.129913112	0.055933874
2.018	0.038017375	0.034402315	0.053958147	0.373026626	0.126199265	0.057759485
2.019	0.038488445	0.03509526	0.054378634	0.371247035	0.122596109	0.05966248
2.02	0.038978844	0.035816747	0.054807568	0.369394005	0.119104221	0.061643261
2.021	0.03948867	0.036567037	0.055244879	0.367469515	0.115724079	0.063702157
2.022	0.040018006	0.037346377	0.05569049	0.365475588	0.112456061	0.065839421
2.023	0.040566918	0.038154999	0.056144314	0.363414284	0.10930045	0.06805523
2.024	0.041135459	0.038993116	0.056606258	0.3612877	0.106257435	0.070349682
2.025	0.041723661	0.039860929	0.057076219	0.359097964	0.103327107	0.072722793
2.026	0.042331544	0.040758615	0.057554088	0.356847234	0.100509467	0.075174501
2.027	0.042959107	0.041686339	0.058039744	0.354537689	0.097804422	0.077704659
2.028	0.043606334	0.042644243	0.058533061	0.352171533	0.09521179	0.080313036
2.029	0.044273191	0.04363245	0.0590339	0.349750986	0.092731299	0.082999317
2.03	0.044959625	0.044651064	0.059542114	0.347278282	0.090362589	0.085763099
2.031	0.045665567	0.045700169	0.060057548	0.344755666	0.088105215	0.088603894
2.032	0.046390927	0.046779824	0.060580035	0.34218539	0.085958647	0.091521124
2.033	0.047135599	0.04789007	0.061109399	0.339569712	0.083922272	0.094514123
2.034	0.047899457	0.049030925	0.061645454	0.336910888	0.081995395	0.097582135
2.035	0.048682356	0.050202381	0.062188006	0.334211176	0.080177243	0.100724315
2.036	0.049484133	0.051404409	0.062736847	0.331472826	0.078466963	0.103939727
2.037	0.050304604	0.052636957	0.063291761	0.328698083	0.076863629	0.107227343
2.038	0.051143568	0.053899947	0.063852524	0.325889179	0.075366236	0.110586046
2.039	0.052000804	0.055193275	0.064418899	0.323048338	0.073973712	0.114014625
2.04	0.05287607	0.056516815	0.064990639	0.320177763	0.072684911	0.117511781
2.041	0.053769108	0.057870412	0.065567489	0.317279644	0.071498618	0.121076121
2.042	0.054679637	0.059253888	0.066149184	0.314356151	0.070413554	0.124706165
2.043	0.055607359	0.060667035	0.066735448	0.31140943	0.069428372	0.128400337
2.044	0.056551955	0.062109623	0.067325996	0.308441606	0.068541664	0.132156977
2.045	0.057513089	0.06358139	0.067920535	0.305454779	0.067751961	0.135974332
2.046	0.058490403	0.065082051	0.068518762	0.30245102	0.067057736	0.139850561
2.047	0.059483522	0.066611292	0.069120364	0.299432373	0.066457402	0.143783736
2.048	0.06049205	0.068168769	0.069725022	0.296400853	0.06594932	0.147771843
2.049	0.061515574	0.069754115	0.070332406	0.293358444	0.065531798	0.151812781
2.05	0.06255366	0.071366932	0.070942181	0.290307096	0.065203093	0.155904364
2.051	0.063605859	0.073006794	0.071554001	0.287248728	0.064961411	0.160044327
2.052	0.0646717	0.074673248	0.072167516	0.284185224	0.064804916	0.164230319
2.053	0.065750696	0.076365813	0.072782368	0.281118432	0.064731723	0.168459913
2.054	0.066842341	0.078083979	0.07339819	0.278050165	0.064739906	0.172730601
2.055	0.067946113	0.079827211	0.074014612	0.2749822	0.0648275	0.177039801
2.056	0.06906147	0.081594943	0.074631258	0.271916276	0.064992498	0.181384855
2.057	0.070187855	0.083386583	0.075247744	0.268854094	0.065232861	0.185763035
2.058	0.071324696	0.085201512	0.075863684	0.265797317	0.065546511	0.190171543
2.059	0.072471401	0.087039083	0.076478687	0.262747569	0.06593134	0.194607511
2.06	0.073627366	0.088898623	0.077092356	0.259706435	0.06638521	0.199068008
2.061	0.074791969	0.090779433	0.077704294	0.256675461	0.066905953	0.20355004
2.062	0.075964574	0.092680788	0.078314098	0.253656152	0.067491375	0.208050553
2.063	0.077144532	0.094601936	0.078921365	0.250649973	0.068139258	0.212566437
2.064	0.078331177	0.096542102	0.079525688	0.247658351	0.068847362	0.217094526
2.065	0.079523834	0.098500485	0.08012666	0.24468267	0.069613424	0.221631605
2.066	0.080721811	0.100476263	0.080723874	0.241724273	0.070435165	0.226174408
2.067	0.081924407	0.102468587	0.081316921	0.238784466	0.071310287	0.230719626
2.068	0.083130907	0.104476589	0.081905393	0.235864509	0.072236479	0.235263908
2.069	0.084340588	0.106499377	0.082488885	0.232965627	0.073211417	0.239803865
2.07	0.085552714	0.108536039	0.08306699	0.230088999	0.074232765	0.244336072
2.071	0.086766541	0.110585645	0.083639307	0.227235768	0.075298179	0.248857076
2.072	0.087981315	0.112647241	0.084205435	0.224407034	0.076405307	0.253363392
2.073	0.089196275	0.11471986	0.084764978	0.221603856	0.077551794	0.257851514
2.074	0.090410651	0.116802515	0.085317545	0.218827255	0.078735278	0.262317917
2.075	0.091623668	0.118894203	0.085862747	0.216078212	0.0799534	0.266759057
2.076	0.092834545	0.120993907	0.086400204	0.213357666	0.081203798	0.27117138
2.077	0.094042493	0.123100594	0.086929538	0.210666519	0.082484115	0.275551324
2.078	0.095246723	0.125213221	0.087450381	0.208005633	0.083791997	0.279895322
2.079	0.096446439	0.127330729	0.087962371	0.205375831	0.085125098	0.284199809
2.08	0.097640843	0.129452053	0.088465154	0.202777899	0.086481077	0.288461222
2.081	0.098829136	0.131576115	0.088958384	0.200212583	0.087857606	0.292676011
2.082	0.100010517	0.133701831	0.089441725	0.197680593	0.089252369	0.296840634
2.083	0.101184185	0.135828108	0.08991485	0.195182602	0.090663061	0.30095157
2.084	0.102349341	0.13795385	0.090377444	0.192719245	0.092087397	0.305005318
2.085	0.103505185	0.140077953	0.0908292	0.190291121	0.093523104	0.308998404
2.086	0.104650921	0.142199315	0.091269823	0.187898793	0.094967934	0.312927384
2.087	0.105785757	0.144316826	0.091699033	0.185542789	0.096419657	0.316788849
2.088	0.106908903	0.146429381	0.092116558	0.183223601	0.097876066	0.320579428
2.089	0.108019576	0.148535873	0.092522142	0.180941687	0.099334981	0.324295794
2.09	0.109116998	0.150635197	0.09291554	0.178697471	0.100794246	0.327934668
2.091	0.110200398	0.152726254	0.093296523	0.17649134	0.102251735	0.331492823
2.092	0.111269014	0.154807946	0.093664874	0.174323651	0.103705353	0.334967088
2.093	0.11232209	0.156879186	0.094020391	0.172194726	0.105153035	0.338354353
2.094	0.113358883	0.15893889	0.094362887	0.170104853	0.106592752	0.341651572
2.095	0.114378657	0.160985985	0.094692191	0.168054291	0.108022507	0.344855769
2.096	0.115380691	0.163019408	0.095008145	0.166043262	0.109440345	0.34796404
2.097	0.116364272	0.165038108	0.09531061	0.164071961	0.110844345	0.350973558
2.098	0.117328704	0.167041044	0.095599459	0.162140547	0.112232631	0.35388158
2.099	0.118273303	0.169027193	0.095874584	0.160249152	0.113603365	0.356685446
2.1	0.1191974	0.170995544	0.096135891	0.158397876	0.114954755	0.359382584
2.101	0.120100341	0.172945102	0.096383305	0.156586787	0.116285055	0.361970519
2.102	0.120981489	0.174874891	0.096616765	0.154815927	0.117592564	0.36444687
2.103	0.121840225	0.176783953	0.096836227	0.153085306	0.118875631	0.366809359
2.104	0.122675946	0.178671351	0.097041664	0.151394908	0.120132654	0.369055811
2.105	0.123488069	0.180536164	0.097233067	0.149744686	0.121362082	0.37118416
2.106	0.124276031	0.182377499	0.097410441	0.148134568	0.122562419	0.373192454
2.107	0.125039286	0.18419448	0.097573809	0.146564455	0.123732221	0.375078855
2.108	0.125777313	0.185986257	0.097723212	0.14503422	0.124870099	0.376841643
2.109	0.126489609	0.187752004	0.097858704	0.143543713	0.125974724	0.378479224
2.11	0.127175695	0.18949092	0.097980358	0.142092759	0.127044823	0.379990128
2.111	0.127835112	0.191202229	0.098088262	0.140681156	0.128079181	0.381373013
2.112	0.128467428	0.192885183	0.098182522	0.139308682	0.129076646	0.382626673
2.113	0.12907223	0.194539059	0.098263257	0.137975092	0.130036126	0.383750033
2.114	0.129649133	0.196163163	0.098330605	0.136680119	0.130956593	0.384742161
